<?xml version="1.0" encoding="UTF-8" standalone="no"?>
<!-- Created with Inkscape (http://www.inkscape.org/) -->

<svg
   width="55.665688mm"
   height="51.523975mm"
   viewBox="0 0 55.665688 51.523975"
   version="1.1"
   id="svg1"
   xml:space="preserve"
   xmlns:inkscape="http://www.inkscape.org/namespaces/inkscape"
   xmlns:sodipodi="http://sodipodi.sourceforge.net/DTD/sodipodi-0.dtd"
   xmlns="http://www.w3.org/2000/svg"
   xmlns:svg="http://www.w3.org/2000/svg"><sodipodi:namedview
     id="namedview1"
     pagecolor="#505050"
     bordercolor="#eeeeee"
     borderopacity="1"
     inkscape:showpageshadow="0"
     inkscape:pageopacity="0"
     inkscape:pagecheckerboard="0"
     inkscape:deskcolor="#505050"
     inkscape:document-units="mm" /><defs
     id="defs1" /><g
     inkscape:label="Vrstva 1"
     inkscape:groupmode="layer"
     id="layer1"
     transform="translate(-29.203526,-23.582931)"><g
       id="g41"
       transform="matrix(0.26458333,0,0,0.26458333,32.378526,-67.40463)">
	<polygon
   class="st0"
   points="77.49,462.98 87.34,471.81 97.41,460.6 103.86,460.6 103.86,495.85 -12,495.85 -12,460.6 79.63,460.6 "
   id="polygon1"
   style="fill:#ffffff;fill-opacity:1"
   inkscape:export-filename="favicon.ico"
   inkscape:export-xdpi="96"
   inkscape:export-ydpi="96" />
	<polygon
   class="st0"
   points="103.41,381.64 103.41,348.07 -12,348.07 -12,381.64 26.64,381.64 "
   id="polygon2"
   style="fill:#ffffff;fill-opacity:1" />
	<polygon
   class="st0"
   points="25.53,436.53 82.65,436.53 82.65,402.75 25.53,402.75 -12,402.75 -12,436.53 "
   id="polygon3"
   style="fill:#ffffff;fill-opacity:1" />
	<path
   class="st1"
   d="m 122.59,343.89 c -33.71,0 -66.93,19.71 -74.86,58.87 -1.16,5.73 -1.79,11.87 -1.79,18.43 0,5.4 0.4,10.52 1.17,15.35 1.42,9.03 4.12,17.05 7.83,24.07 9.9,18.81 27.04,30.53 46.53,35.25 6.62,1.61 13.51,2.42 20.48,2.42 45.01,0 76.44,-31.65 76.44,-77.09 0,-51.39 -37.79,-77.3 -75.8,-77.3 z m -0.42,116.71 c -7.27,0 -14.07,-1.97 -19.92,-5.39 l -4.84,5.39 -10.08,11.21 -9.84,-8.83 2.13,-2.38 12.48,-13.89 c -5.89,-6.9 -9.45,-15.84 -9.45,-25.62 0,-21.83 17.69,-39.52 39.52,-39.52 21.82,0 39.51,17.69 39.51,39.52 0,21.82 -17.69,39.51 -39.51,39.51 z"
   id="path3" />
	
	
	
	
	
	<path
   class="st0"
   d="m 233.31,407.56 c 1.81,1.75 2.81,3.73 3.01,5.95 h -3.46 c -0.39,-1.69 -1.15,-3.02 -2.3,-4.01 -1.15,-0.99 -2.76,-1.48 -4.84,-1.48 -2.53,0 -4.58,0.91 -6.14,2.72 -1.56,1.81 -2.34,4.59 -2.34,8.34 0,3.07 0.7,5.56 2.11,7.47 1.41,1.91 3.5,2.86 6.29,2.86 2.57,0 4.52,-1 5.87,-3.01 0.71,-1.06 1.24,-2.45 1.59,-4.17 h 3.46 c -0.31,2.76 -1.32,5.07 -3.03,6.93 -2.06,2.25 -4.83,3.37 -8.32,3.37 -3.01,0 -5.53,-0.92 -7.58,-2.76 -2.69,-2.44 -4.04,-6.2 -4.04,-11.29 0,-3.86 1.01,-7.03 3.03,-9.51 2.18,-2.69 5.2,-4.03 9.04,-4.03 3.29,0 5.84,0.88 7.65,2.62 z"
   id="path8"
   style="fill:#ffffff;fill-opacity:1" />
	<path
   class="st0"
   d="m 252.51,413.27 c 1.26,0.63 2.22,1.46 2.89,2.47 0.64,0.96 1.06,2.09 1.27,3.37 0.19,0.88 0.28,2.28 0.28,4.21 h -13.88 c 0.06,1.94 0.51,3.5 1.36,4.67 0.85,1.17 2.16,1.76 3.94,1.76 1.66,0 2.99,-0.56 3.98,-1.66 0.55,-0.65 0.95,-1.39 1.18,-2.24 h 3.15 c -0.08,0.7 -0.36,1.48 -0.83,2.35 -0.47,0.86 -0.99,1.56 -1.57,2.11 -0.97,0.95 -2.17,1.59 -3.59,1.92 -0.77,0.19 -1.63,0.29 -2.6,0.29 -2.36,0 -4.36,-0.86 -6,-2.59 -1.64,-1.73 -2.46,-4.15 -2.46,-7.26 0,-3.07 0.83,-5.56 2.48,-7.47 1.65,-1.91 3.81,-2.87 6.48,-2.87 1.35,-0.01 2.66,0.31 3.92,0.94 z m 1.15,7.5 c -0.13,-1.39 -0.43,-2.5 -0.9,-3.33 -0.87,-1.54 -2.33,-2.32 -4.36,-2.32 -1.46,0 -2.69,0.53 -3.68,1.6 -0.99,1.06 -1.51,2.42 -1.57,4.06 h 10.51 z"
   id="path9"
   style="fill:#ffffff;fill-opacity:1" />
	<path
   class="st0"
   d="m 261.02,412.75 h 3.05 v 2.71 c 0.9,-1.12 1.86,-1.92 2.87,-2.41 1.01,-0.49 2.13,-0.73 3.37,-0.73 2.71,0 4.54,0.95 5.49,2.83 0.52,1.03 0.78,2.51 0.78,4.44 v 12.24 h -3.26 V 419.8 c 0,-1.17 -0.17,-2.1 -0.52,-2.82 -0.57,-1.19 -1.6,-1.78 -3.1,-1.78 -0.76,0 -1.39,0.08 -1.87,0.23 -0.88,0.26 -1.65,0.79 -2.32,1.57 -0.54,0.63 -0.88,1.28 -1.04,1.95 -0.16,0.67 -0.24,1.63 -0.24,2.88 v 10 h -3.21 z"
   id="path10"
   style="fill:#ffffff;fill-opacity:1" />
	<path
   class="st0"
   d="m 281.96,407.42 h 3.24 v 5.33 h 3.05 v 2.62 h -3.05 v 12.46 c 0,0.67 0.23,1.11 0.68,1.34 0.25,0.13 0.67,0.2 1.25,0.2 0.15,0 0.32,0 0.5,-0.01 0.18,-0.01 0.39,-0.03 0.62,-0.06 v 2.55 c -0.37,0.11 -0.75,0.18 -1.15,0.23 -0.4,0.05 -0.83,0.07 -1.29,0.07 -1.5,0 -2.51,-0.38 -3.05,-1.15 -0.54,-0.77 -0.8,-1.76 -0.8,-2.99 v -12.64 h -2.59 v -2.62 h 2.59 z"
   id="path11"
   style="fill:#ffffff;fill-opacity:1" />
	<path
   class="st0"
   d="m 291.55,412.75 h 3.05 v 3.3 c 0.25,-0.64 0.86,-1.42 1.83,-2.34 0.97,-0.92 2.1,-1.38 3.37,-1.38 0.06,0 0.16,0.01 0.3,0.02 0.14,0.01 0.39,0.04 0.73,0.07 v 3.39 c -0.19,-0.04 -0.36,-0.06 -0.53,-0.07 -0.16,-0.01 -0.33,-0.02 -0.53,-0.02 -1.61,0 -2.86,0.52 -3.72,1.56 -0.87,1.04 -1.3,2.24 -1.3,3.59 v 10.98 h -3.21 v -19.1 z"
   id="path12"
   style="fill:#ffffff;fill-opacity:1" />
	<path
   class="st0"
   d="m 313.85,420.29 c 0.74,-0.1 1.23,-0.4 1.48,-0.93 0.14,-0.29 0.21,-0.7 0.21,-1.24 0,-1.1 -0.39,-1.89 -1.16,-2.39 -0.78,-0.49 -1.89,-0.74 -3.33,-0.74 -1.67,0 -2.86,0.45 -3.56,1.36 -0.39,0.5 -0.65,1.25 -0.77,2.24 h -2.99 c 0.06,-2.36 0.82,-4 2.29,-4.92 1.47,-0.92 3.17,-1.38 5.1,-1.38 2.24,0 4.07,0.43 5.47,1.28 1.39,0.86 2.08,2.19 2.08,3.99 v 11 c 0,0.33 0.07,0.6 0.21,0.8 0.14,0.2 0.42,0.3 0.86,0.3 0.14,0 0.3,-0.01 0.48,-0.03 0.18,-0.02 0.37,-0.04 0.57,-0.08 v 2.37 c -0.5,0.14 -0.88,0.23 -1.14,0.27 -0.26,0.04 -0.62,0.05 -1.07,0.05 -1.11,0 -1.91,-0.39 -2.41,-1.18 -0.26,-0.42 -0.45,-1 -0.55,-1.76 -0.65,0.86 -1.59,1.6 -2.82,2.23 -1.23,0.63 -2.57,0.95 -4.05,0.95 -1.77,0 -3.22,-0.54 -4.34,-1.61 -1.12,-1.07 -1.68,-2.42 -1.68,-4.03 0,-1.77 0.55,-3.14 1.66,-4.11 1.11,-0.97 2.55,-1.57 4.35,-1.8 z m -6.76,8.66 c 0.68,0.54 1.48,0.8 2.41,0.8 1.13,0 2.22,-0.26 3.28,-0.78 1.78,-0.87 2.67,-2.28 2.67,-4.25 v -2.58 c -0.39,0.25 -0.89,0.46 -1.51,0.63 -0.62,0.17 -1.22,0.28 -1.81,0.36 l -1.94,0.25 c -1.16,0.15 -2.04,0.4 -2.62,0.73 -0.99,0.56 -1.49,1.45 -1.49,2.67 0,0.91 0.34,1.64 1.01,2.17 z"
   id="path13"
   style="fill:#ffffff;fill-opacity:1" />
	<polygon
   class="st0"
   points="327.22,405.65 327.22,431.84 324.01,431.84 324.01,405.65 "
   id="polygon13"
   style="fill:#ffffff;fill-opacity:1" />
	<polygon
   class="st0"
   points="360.76,416.81 360.76,419.84 346.4,419.84 346.4,428.72 362.2,428.72 362.2,431.84 342.94,431.84 342.94,405.65 361.94,405.65 361.94,408.86 346.4,408.86 346.4,416.81 "
   id="polygon14"
   style="fill:#ffffff;fill-opacity:1" />
	<path
   class="st0"
   d="m 369.73,412.75 v 12.67 c 0,0.98 0.15,1.77 0.45,2.39 0.55,1.14 1.59,1.71 3.11,1.71 2.17,0 3.66,-1 4.44,-2.99 0.43,-1.07 0.64,-2.54 0.64,-4.4 v -9.38 h 3.21 v 19.09 h -3.03 l 0.04,-2.82 c -0.41,0.72 -0.92,1.34 -1.52,1.84 -1.2,1 -2.66,1.5 -4.37,1.5 -2.67,0 -4.49,-0.91 -5.46,-2.73 -0.52,-0.97 -0.79,-2.28 -0.79,-3.9 v -12.98 z"
   id="path14"
   style="fill:#ffffff;fill-opacity:1" />
	<path
   class="st0"
   d="m 386.91,412.75 h 3.05 v 3.3 c 0.25,-0.64 0.86,-1.42 1.84,-2.34 0.98,-0.92 2.1,-1.38 3.37,-1.38 0.06,0 0.16,0.01 0.3,0.02 0.14,0.01 0.39,0.04 0.73,0.07 v 3.39 c -0.19,-0.04 -0.36,-0.06 -0.53,-0.07 -0.16,-0.01 -0.33,-0.02 -0.52,-0.02 -1.62,0 -2.86,0.52 -3.73,1.56 -0.87,1.04 -1.3,2.24 -1.3,3.59 v 10.98 h -3.21 z"
   id="path15"
   style="fill:#ffffff;fill-opacity:1" />
	<path
   class="st0"
   d="m 412.81,414.65 c 1.69,1.64 2.53,4.05 2.53,7.23 0,3.08 -0.74,5.62 -2.23,7.62 -1.49,2.01 -3.79,3.01 -6.92,3.01 -2.61,0 -4.68,-0.89 -6.21,-2.66 -1.53,-1.77 -2.3,-4.16 -2.3,-7.15 0,-3.21 0.81,-5.76 2.42,-7.66 1.62,-1.9 3.79,-2.85 6.51,-2.85 2.44,0.01 4.51,0.83 6.2,2.46 z m -2,12.69 c 0.78,-1.61 1.17,-3.4 1.17,-5.37 0,-1.78 -0.28,-3.23 -0.85,-4.34 -0.89,-1.76 -2.43,-2.64 -4.62,-2.64 -1.94,0 -3.35,0.75 -4.23,2.24 -0.88,1.5 -1.32,3.3 -1.32,5.41 0,2.03 0.44,3.72 1.32,5.07 0.88,1.35 2.28,2.03 4.2,2.03 2.11,0.01 3.55,-0.79 4.33,-2.4 z"
   id="path16"
   style="fill:#ffffff;fill-opacity:1" />
	<path
   class="st0"
   d="m 419.01,412.84 h 3.14 v 2.53 c 0.64,-0.87 1.35,-1.54 2.11,-2.01 1.08,-0.71 2.36,-1.07 3.82,-1.07 2.17,0 4.01,0.83 5.52,2.49 1.51,1.66 2.27,4.02 2.27,7.1 0,4.16 -1.09,7.13 -3.27,8.91 -1.38,1.13 -2.99,1.69 -4.83,1.69 -1.44,0 -2.66,-0.32 -3.63,-0.95 -0.57,-0.36 -1.21,-0.97 -1.91,-1.84 v 9.75 h -3.21 v -26.6 z m 12.07,14.96 c 0.99,-1.26 1.49,-3.13 1.49,-5.62 0,-1.52 -0.22,-2.83 -0.66,-3.92 -0.83,-2.1 -2.36,-3.15 -4.58,-3.15 -2.23,0 -3.76,1.11 -4.58,3.33 -0.44,1.19 -0.66,2.7 -0.66,4.53 0,1.47 0.22,2.73 0.66,3.76 0.83,1.97 2.36,2.96 4.58,2.96 1.5,-0.01 2.75,-0.64 3.75,-1.89 z"
   id="path17"
   style="fill:#ffffff;fill-opacity:1" />
	<path
   class="st0"
   d="m 451.37,413.27 c 1.26,0.63 2.23,1.46 2.89,2.47 0.64,0.96 1.06,2.09 1.27,3.37 0.19,0.88 0.28,2.28 0.28,4.21 h -13.89 c 0.06,1.94 0.51,3.5 1.36,4.67 0.85,1.17 2.16,1.76 3.94,1.76 1.66,0 2.99,-0.56 3.98,-1.66 0.55,-0.65 0.95,-1.39 1.18,-2.24 h 3.15 c -0.08,0.7 -0.36,1.48 -0.83,2.35 -0.47,0.86 -0.99,1.56 -1.57,2.11 -0.97,0.95 -2.16,1.59 -3.59,1.92 -0.77,0.19 -1.63,0.29 -2.6,0.29 -2.36,0 -4.36,-0.86 -6,-2.59 -1.64,-1.73 -2.46,-4.15 -2.46,-7.26 0,-3.07 0.83,-5.56 2.48,-7.47 1.65,-1.91 3.81,-2.87 6.48,-2.87 1.36,-0.01 2.66,0.31 3.93,0.94 z m 1.15,7.5 c -0.13,-1.39 -0.43,-2.5 -0.9,-3.33 -0.87,-1.54 -2.33,-2.32 -4.37,-2.32 -1.46,0 -2.69,0.53 -3.68,1.6 -0.99,1.06 -1.51,2.42 -1.57,4.06 h 10.52 z"
   id="path18"
   style="fill:#ffffff;fill-opacity:1" />
	<path
   class="st0"
   d="m 470.11,420.29 c 0.74,-0.1 1.23,-0.4 1.48,-0.93 0.14,-0.29 0.21,-0.7 0.21,-1.24 0,-1.1 -0.39,-1.89 -1.17,-2.39 -0.78,-0.49 -1.89,-0.74 -3.33,-0.74 -1.67,0 -2.86,0.45 -3.56,1.36 -0.39,0.5 -0.65,1.25 -0.76,2.24 h -2.99 c 0.06,-2.36 0.82,-4 2.29,-4.92 1.47,-0.92 3.17,-1.38 5.1,-1.38 2.24,0 4.07,0.43 5.47,1.28 1.39,0.86 2.08,2.19 2.08,3.99 v 11 c 0,0.33 0.07,0.6 0.21,0.8 0.14,0.2 0.42,0.3 0.86,0.3 0.14,0 0.3,-0.01 0.48,-0.03 0.18,-0.02 0.37,-0.04 0.57,-0.08 v 2.37 c -0.5,0.14 -0.88,0.23 -1.14,0.27 -0.26,0.04 -0.62,0.05 -1.07,0.05 -1.1,0 -1.91,-0.39 -2.41,-1.18 -0.26,-0.42 -0.45,-1 -0.55,-1.76 -0.65,0.86 -1.59,1.6 -2.82,2.23 -1.22,0.63 -2.57,0.95 -4.05,0.95 -1.77,0 -3.22,-0.54 -4.34,-1.61 -1.12,-1.07 -1.68,-2.42 -1.68,-4.03 0,-1.77 0.55,-3.14 1.66,-4.11 1.1,-0.97 2.55,-1.57 4.35,-1.8 z m -6.76,8.66 c 0.68,0.54 1.48,0.8 2.41,0.8 1.13,0 2.22,-0.26 3.28,-0.78 1.78,-0.87 2.67,-2.28 2.67,-4.25 v -2.58 c -0.39,0.25 -0.9,0.46 -1.51,0.63 -0.62,0.17 -1.22,0.28 -1.81,0.36 l -1.94,0.25 c -1.16,0.15 -2.04,0.4 -2.62,0.73 -0.99,0.56 -1.49,1.45 -1.49,2.67 0,0.91 0.34,1.64 1.01,2.17 z"
   id="path19"
   style="fill:#ffffff;fill-opacity:1" />
	<path
   class="st0"
   d="m 480.18,412.75 h 3.05 v 2.71 c 0.9,-1.12 1.86,-1.92 2.87,-2.41 1.01,-0.49 2.13,-0.73 3.37,-0.73 2.71,0 4.54,0.95 5.49,2.83 0.52,1.03 0.78,2.51 0.78,4.44 v 12.24 h -3.26 V 419.8 c 0,-1.17 -0.17,-2.1 -0.52,-2.82 -0.57,-1.19 -1.61,-1.78 -3.1,-1.78 -0.76,0 -1.38,0.08 -1.87,0.23 -0.88,0.26 -1.65,0.79 -2.32,1.57 -0.53,0.63 -0.88,1.28 -1.04,1.95 -0.16,0.67 -0.24,1.63 -0.24,2.88 v 10 h -3.21 z"
   id="path20"
   style="fill:#ffffff;fill-opacity:1" />
	<path
   class="st0"
   d="m 511.21,405.65 h 10.47 c 3.55,0 6.31,1.28 8.27,3.83 1.75,2.31 2.62,5.26 2.62,8.86 0,2.78 -0.52,5.29 -1.55,7.54 -1.82,3.97 -4.94,5.95 -9.38,5.95 h -10.43 z m 9.77,23.16 c 1.17,0 2.14,-0.12 2.89,-0.37 1.35,-0.46 2.45,-1.36 3.31,-2.67 0.69,-1.06 1.18,-2.41 1.48,-4.06 0.17,-0.99 0.26,-1.9 0.26,-2.74 0,-3.24 -0.63,-5.76 -1.89,-7.56 -1.26,-1.79 -3.29,-2.69 -6.09,-2.69 h -6.15 v 20.11 h 6.19 z"
   id="path21"
   style="fill:#ffffff;fill-opacity:1" />
	<path
   class="st0"
   d="m 536.98,405.65 h 3.26 v 3.64 h -3.26 z m 0,7.19 h 3.26 v 19 h -3.26 z"
   id="path22"
   style="fill:#ffffff;fill-opacity:1" />
	<path
   class="st0"
   d="m 555.7,413.51 c 0.6,0.42 1.22,1.02 1.85,1.82 v -2.41 h 2.96 v 17.36 c 0,2.42 -0.36,4.34 -1.07,5.74 -1.33,2.59 -3.83,3.89 -7.51,3.89 -2.05,0 -3.77,-0.46 -5.17,-1.38 -1.4,-0.92 -2.18,-2.36 -2.35,-4.32 h 3.26 c 0.15,0.86 0.46,1.51 0.92,1.98 0.72,0.71 1.86,1.07 3.4,1.07 2.45,0 4.05,-0.87 4.8,-2.6 0.45,-1.02 0.66,-2.85 0.62,-5.47 -0.64,0.98 -1.41,1.7 -2.31,2.17 -0.9,0.48 -2.09,0.71 -3.57,0.71 -2.06,0 -3.86,-0.73 -5.41,-2.2 -1.55,-1.47 -2.32,-3.89 -2.32,-7.28 0,-3.2 0.78,-5.69 2.33,-7.49 1.56,-1.79 3.44,-2.69 5.64,-2.69 1.52,0 2.82,0.37 3.93,1.1 z m 0.39,3.44 c -0.97,-1.14 -2.2,-1.71 -3.71,-1.71 -2.24,0 -3.78,1.06 -4.61,3.17 -0.44,1.13 -0.66,2.61 -0.66,4.44 0,2.15 0.43,3.79 1.3,4.91 0.87,1.12 2.04,1.68 3.5,1.68 2.29,0 3.91,-1.04 4.84,-3.12 0.52,-1.18 0.78,-2.55 0.78,-4.12 0.02,-2.35 -0.47,-4.1 -1.44,-5.25 z"
   id="path23"
   style="fill:#ffffff;fill-opacity:1" />
	<path
   class="st0"
   d="m 565.39,405.65 h 3.26 v 3.64 h -3.26 z m 0,7.19 h 3.26 v 19 h -3.26 z"
   id="path24"
   style="fill:#ffffff;fill-opacity:1" />
	<path
   class="st0"
   d="m 574.14,407.42 h 3.24 v 5.33 h 3.05 v 2.62 h -3.05 v 12.46 c 0,0.67 0.23,1.11 0.68,1.34 0.25,0.13 0.66,0.2 1.25,0.2 0.16,0 0.32,0 0.5,-0.01 0.18,-0.01 0.39,-0.03 0.62,-0.06 v 2.55 c -0.37,0.11 -0.75,0.18 -1.15,0.23 -0.4,0.05 -0.83,0.07 -1.29,0.07 -1.5,0 -2.51,-0.38 -3.05,-1.15 -0.54,-0.77 -0.8,-1.76 -0.8,-2.99 v -12.64 h -2.59 v -2.62 h 2.59 z"
   id="path25"
   style="fill:#ffffff;fill-opacity:1" />
	<path
   class="st0"
   d="m 593.87,420.29 c 0.74,-0.1 1.23,-0.4 1.48,-0.93 0.14,-0.29 0.21,-0.7 0.21,-1.24 0,-1.1 -0.39,-1.89 -1.17,-2.39 -0.78,-0.49 -1.89,-0.74 -3.33,-0.74 -1.67,0 -2.86,0.45 -3.56,1.36 -0.39,0.5 -0.65,1.25 -0.77,2.24 h -2.99 c 0.06,-2.36 0.82,-4 2.29,-4.92 1.47,-0.92 3.17,-1.38 5.1,-1.38 2.24,0 4.06,0.43 5.47,1.28 1.39,0.86 2.08,2.19 2.08,3.99 v 11 c 0,0.33 0.07,0.6 0.21,0.8 0.14,0.2 0.42,0.3 0.86,0.3 0.14,0 0.3,-0.01 0.48,-0.03 0.18,-0.02 0.37,-0.04 0.57,-0.08 v 2.37 c -0.5,0.14 -0.88,0.23 -1.14,0.27 -0.26,0.04 -0.62,0.05 -1.07,0.05 -1.1,0 -1.91,-0.39 -2.41,-1.18 -0.26,-0.42 -0.45,-1 -0.55,-1.76 -0.65,0.86 -1.59,1.6 -2.82,2.23 -1.22,0.63 -2.57,0.95 -4.05,0.95 -1.77,0 -3.22,-0.54 -4.34,-1.61 -1.12,-1.07 -1.68,-2.42 -1.68,-4.03 0,-1.77 0.55,-3.14 1.66,-4.11 1.1,-0.97 2.55,-1.57 4.35,-1.8 z m -6.75,8.66 c 0.68,0.54 1.48,0.8 2.41,0.8 1.13,0 2.22,-0.26 3.28,-0.78 1.78,-0.87 2.67,-2.28 2.67,-4.25 v -2.58 c -0.39,0.25 -0.9,0.46 -1.51,0.63 -0.62,0.17 -1.22,0.28 -1.81,0.36 l -1.94,0.25 c -1.16,0.15 -2.04,0.4 -2.62,0.73 -0.99,0.56 -1.49,1.45 -1.49,2.67 -0.01,0.91 0.33,1.64 1.01,2.17 z"
   id="path26"
   style="fill:#ffffff;fill-opacity:1" />
	<polygon
   class="st0"
   points="607.24,405.65 607.24,431.84 604.03,431.84 604.03,405.65 "
   id="polygon26"
   style="fill:#ffffff;fill-opacity:1" />
	<path
   class="st0"
   d="m 214.7,449.46 h 5.08 l 7.53,22.14 7.48,-22.14 h 5.05 v 26.18 h -3.39 v -15.45 c 0,-0.53 0.01,-1.42 0.04,-2.66 0.02,-1.24 0.04,-2.56 0.04,-3.97 l -7.48,22.08 h -3.51 l -7.55,-22.08 v 0.8 c 0,0.64 0.02,1.62 0.05,2.93 0.04,1.31 0.05,2.28 0.05,2.9 v 15.45 h -3.39 z"
   id="path27"
   style="fill:#ffffff;fill-opacity:1" />
	<path
   class="st0"
   d="m 256.56,457.08 c 1.26,0.64 2.23,1.46 2.89,2.47 0.64,0.96 1.06,2.09 1.27,3.37 0.19,0.88 0.28,2.28 0.28,4.21 h -13.88 c 0.06,1.94 0.51,3.5 1.36,4.67 0.85,1.17 2.16,1.76 3.95,1.76 1.66,0 2.99,-0.56 3.98,-1.67 0.55,-0.65 0.95,-1.39 1.18,-2.24 h 3.15 c -0.08,0.7 -0.36,1.48 -0.83,2.35 -0.47,0.86 -0.99,1.56 -1.57,2.11 -0.97,0.95 -2.17,1.59 -3.59,1.92 -0.77,0.19 -1.63,0.28 -2.6,0.28 -2.36,0 -4.36,-0.86 -6,-2.59 -1.64,-1.73 -2.46,-4.15 -2.46,-7.26 0,-3.07 0.83,-5.55 2.48,-7.47 1.65,-1.91 3.81,-2.87 6.48,-2.87 1.34,0 2.64,0.32 3.91,0.96 z m 1.15,7.49 c -0.13,-1.39 -0.43,-2.5 -0.9,-3.33 -0.87,-1.55 -2.33,-2.32 -4.37,-2.32 -1.46,0 -2.68,0.53 -3.67,1.6 -0.99,1.06 -1.51,2.41 -1.57,4.05 z"
   id="path28"
   style="fill:#ffffff;fill-opacity:1" />
	<path
   class="st0"
   d="m 275.55,457.14 c 0.57,0.36 1.21,0.98 1.94,1.87 v -9.64 h 3.08 v 26.27 h -2.89 v -2.66 c -0.75,1.18 -1.63,2.03 -2.65,2.55 -1.02,0.52 -2.18,0.78 -3.5,0.78 -2.12,0 -3.95,-0.89 -5.51,-2.68 -1.55,-1.79 -2.33,-4.17 -2.33,-7.14 0,-2.78 0.71,-5.19 2.12,-7.23 1.41,-2.04 3.44,-3.06 6.06,-3.06 1.48,0.01 2.7,0.32 3.68,0.94 z m -7.16,14.31 c 0.86,1.38 2.25,2.07 4.15,2.07 1.48,0 2.69,-0.64 3.65,-1.91 0.95,-1.28 1.43,-3.11 1.43,-5.5 0,-2.41 -0.49,-4.2 -1.47,-5.36 -0.98,-1.16 -2.19,-1.74 -3.63,-1.74 -1.61,0 -2.91,0.62 -3.91,1.85 -1,1.24 -1.5,3.05 -1.5,5.45 -0.01,2.05 0.42,3.76 1.28,5.14 z"
   id="path29"
   style="fill:#ffffff;fill-opacity:1" />
	<path
   class="st0"
   d="m 285.37,449.46 h 3.26 v 3.64 h -3.26 z m 0,7.18 h 3.26 v 19 h -3.26 z"
   id="path30"
   style="fill:#ffffff;fill-opacity:1" />
	<path
   class="st0"
   d="m 303.71,464.09 c 0.74,-0.1 1.23,-0.4 1.48,-0.93 0.14,-0.29 0.21,-0.7 0.21,-1.23 0,-1.1 -0.39,-1.89 -1.17,-2.39 -0.77,-0.49 -1.89,-0.74 -3.33,-0.74 -1.67,0 -2.86,0.45 -3.56,1.36 -0.39,0.5 -0.65,1.25 -0.77,2.24 h -2.99 c 0.06,-2.36 0.82,-4 2.29,-4.93 1.47,-0.92 3.17,-1.38 5.1,-1.38 2.24,0 4.07,0.43 5.47,1.28 1.39,0.86 2.08,2.19 2.08,3.99 v 11 c 0,0.33 0.07,0.6 0.21,0.8 0.13,0.2 0.42,0.3 0.86,0.3 0.14,0 0.3,-0.01 0.48,-0.03 0.18,-0.02 0.37,-0.04 0.57,-0.08 v 2.37 c -0.5,0.14 -0.88,0.23 -1.14,0.27 -0.26,0.04 -0.62,0.05 -1.07,0.05 -1.1,0 -1.91,-0.39 -2.41,-1.18 -0.26,-0.42 -0.45,-1 -0.55,-1.77 -0.65,0.86 -1.59,1.6 -2.82,2.23 -1.22,0.63 -2.57,0.94 -4.05,0.94 -1.77,0 -3.22,-0.54 -4.34,-1.61 -1.12,-1.07 -1.68,-2.42 -1.68,-4.03 0,-1.77 0.55,-3.14 1.66,-4.11 1.11,-0.97 2.55,-1.57 4.35,-1.8 z m -6.76,8.66 c 0.68,0.54 1.48,0.8 2.41,0.8 1.13,0 2.22,-0.26 3.28,-0.78 1.78,-0.87 2.67,-2.28 2.67,-4.25 v -2.58 c -0.39,0.25 -0.9,0.46 -1.51,0.63 -0.61,0.17 -1.22,0.29 -1.81,0.36 l -1.94,0.25 c -1.16,0.15 -2.03,0.4 -2.62,0.73 -0.99,0.56 -1.49,1.45 -1.49,2.67 0,0.91 0.34,1.64 1.01,2.17 z"
   id="path31"
   style="fill:#ffffff;fill-opacity:1" />
	<path
   class="st0"
   d="m 345.91,453.2 c 1.74,2.32 2.6,5.28 2.6,8.89 0,3.91 -0.99,7.16 -2.98,9.75 -2.33,3.04 -5.65,4.56 -9.96,4.56 -4.03,0 -7.19,-1.33 -9.5,-3.99 -2.06,-2.57 -3.08,-5.81 -3.08,-9.73 0,-3.54 0.88,-6.57 2.64,-9.09 2.26,-3.23 5.6,-4.85 10.02,-4.85 4.62,0 8.04,1.49 10.26,4.46 z m -3.12,16.69 c 1.4,-2.24 2.1,-4.82 2.1,-7.73 0,-3.08 -0.8,-5.56 -2.42,-7.44 -1.61,-1.88 -3.81,-2.82 -6.6,-2.82 -2.71,0 -4.92,0.93 -6.63,2.79 -1.71,1.86 -2.57,4.61 -2.57,8.23 0,2.9 0.73,5.35 2.2,7.34 1.47,1.99 3.85,2.99 7.14,2.99 3.12,0 5.38,-1.12 6.78,-3.36 z"
   id="path32"
   style="fill:#ffffff;fill-opacity:1" />
	<path
   class="st0"
   d="m 352.05,449.37 h 3.12 v 9.5 c 0.7,-0.91 1.55,-1.61 2.52,-2.09 0.98,-0.48 2.04,-0.72 3.18,-0.72 2.39,0 4.32,0.82 5.81,2.45 1.48,1.63 2.23,4.04 2.23,7.23 0,3.02 -0.73,5.53 -2.2,7.52 -1.47,2 -3.5,2.99 -6.1,2.99 -1.46,0 -2.68,-0.35 -3.69,-1.05 -0.6,-0.42 -1.23,-1.08 -1.91,-2 v 2.44 h -2.96 z m 12.26,21.98 c 0.87,-1.38 1.3,-3.2 1.3,-5.45 0,-2.01 -0.43,-3.67 -1.3,-4.99 -0.86,-1.32 -2.14,-1.98 -3.82,-1.98 -1.47,0 -2.75,0.54 -3.85,1.62 -1.1,1.08 -1.65,2.86 -1.65,5.35 0,1.79 0.23,3.25 0.68,4.37 0.85,2.1 2.42,3.15 4.74,3.15 1.74,-0.01 3.04,-0.7 3.9,-2.07 z"
   id="path33"
   style="fill:#ffffff;fill-opacity:1" />
	<path
   class="st0"
   d="m 374.52,469.65 c 0.1,1.07 0.37,1.89 0.82,2.46 0.82,1.03 2.25,1.55 4.29,1.55 1.21,0 2.28,-0.26 3.2,-0.77 0.92,-0.52 1.38,-1.32 1.38,-2.4 0,-0.82 -0.37,-1.44 -1.11,-1.87 -0.47,-0.26 -1.4,-0.56 -2.79,-0.91 l -2.59,-0.64 c -1.65,-0.4 -2.87,-0.86 -3.66,-1.35 -1.4,-0.87 -2.1,-2.07 -2.1,-3.6 0,-1.81 0.66,-3.27 1.98,-4.38 1.32,-1.12 3.09,-1.68 5.32,-1.68 2.91,0 5.02,0.84 6.3,2.53 0.81,1.07 1.2,2.22 1.18,3.46 h -3.03 c -0.06,-0.72 -0.32,-1.38 -0.78,-1.97 -0.75,-0.84 -2.06,-1.26 -3.92,-1.26 -1.24,0 -2.18,0.23 -2.82,0.69 -0.64,0.46 -0.96,1.07 -0.96,1.83 0,0.83 0.42,1.49 1.26,1.99 0.48,0.3 1.2,0.56 2.14,0.78 l 2.16,0.52 c 2.35,0.56 3.92,1.1 4.72,1.62 1.25,0.82 1.87,2.11 1.87,3.87 0,1.7 -0.65,3.17 -1.96,4.4 -1.3,1.23 -3.29,1.85 -5.96,1.85 -2.88,0 -4.91,-0.65 -6.11,-1.93 -1.2,-1.29 -1.84,-2.88 -1.92,-4.79 z"
   id="path34"
   style="fill:#ffffff;fill-opacity:1" />
	<path
   class="st0"
   d="m 402.66,457.08 c 1.26,0.64 2.23,1.46 2.89,2.47 0.64,0.96 1.06,2.09 1.28,3.37 0.19,0.88 0.28,2.28 0.28,4.21 h -13.88 c 0.06,1.94 0.51,3.5 1.36,4.67 0.85,1.17 2.16,1.76 3.95,1.76 1.66,0 2.99,-0.56 3.98,-1.67 0.55,-0.65 0.95,-1.39 1.18,-2.24 h 3.15 c -0.08,0.7 -0.36,1.48 -0.83,2.35 -0.47,0.86 -0.99,1.56 -1.57,2.11 -0.97,0.95 -2.16,1.59 -3.59,1.92 -0.77,0.19 -1.63,0.28 -2.6,0.28 -2.36,0 -4.36,-0.86 -6,-2.59 -1.64,-1.73 -2.46,-4.15 -2.46,-7.26 0,-3.07 0.83,-5.55 2.48,-7.47 1.65,-1.91 3.81,-2.87 6.48,-2.87 1.33,0 2.63,0.32 3.9,0.96 z m 1.14,7.49 c -0.13,-1.39 -0.43,-2.5 -0.9,-3.33 -0.87,-1.55 -2.33,-2.32 -4.37,-2.32 -1.46,0 -2.68,0.53 -3.68,1.6 -0.99,1.06 -1.51,2.41 -1.57,4.05 z"
   id="path35"
   style="fill:#ffffff;fill-opacity:1" />
	<path
   class="st0"
   d="m 411.25,456.55 h 3.05 v 3.3 c 0.25,-0.64 0.86,-1.42 1.84,-2.34 0.97,-0.92 2.1,-1.38 3.37,-1.38 0.06,0 0.16,0.01 0.3,0.02 0.14,0.01 0.39,0.04 0.73,0.07 v 3.39 c -0.19,-0.04 -0.36,-0.06 -0.53,-0.07 -0.16,-0.01 -0.34,-0.02 -0.53,-0.02 -1.62,0 -2.86,0.52 -3.73,1.56 -0.87,1.04 -1.3,2.24 -1.3,3.59 v 10.98 h -3.21 v -19.1 z"
   id="path36"
   style="fill:#ffffff;fill-opacity:1" />
	<polygon
   class="st0"
   points="428.21,475.64 421.17,456.55 424.9,456.55 430,472.09 435.31,456.55 438.82,456.55 431.63,475.64 "
   id="polygon36"
   style="fill:#ffffff;fill-opacity:1" />
	<path
   class="st0"
   d="m 451.8,464.09 c 0.74,-0.1 1.23,-0.4 1.48,-0.93 0.14,-0.29 0.21,-0.7 0.21,-1.23 0,-1.1 -0.39,-1.89 -1.17,-2.39 -0.78,-0.49 -1.89,-0.74 -3.33,-0.74 -1.67,0 -2.86,0.45 -3.56,1.36 -0.39,0.5 -0.65,1.25 -0.76,2.24 h -2.99 c 0.06,-2.36 0.82,-4 2.29,-4.93 1.47,-0.92 3.17,-1.38 5.1,-1.38 2.24,0 4.07,0.43 5.47,1.28 1.39,0.86 2.08,2.19 2.08,3.99 v 11 c 0,0.33 0.07,0.6 0.21,0.8 0.14,0.2 0.42,0.3 0.86,0.3 0.14,0 0.3,-0.01 0.48,-0.03 0.18,-0.02 0.37,-0.04 0.57,-0.08 v 2.37 c -0.5,0.14 -0.88,0.23 -1.14,0.27 -0.26,0.04 -0.62,0.05 -1.07,0.05 -1.1,0 -1.91,-0.39 -2.41,-1.18 -0.26,-0.42 -0.45,-1 -0.55,-1.77 -0.65,0.86 -1.59,1.6 -2.82,2.23 -1.22,0.63 -2.57,0.94 -4.05,0.94 -1.77,0 -3.22,-0.54 -4.34,-1.61 -1.12,-1.07 -1.68,-2.42 -1.68,-4.03 0,-1.77 0.55,-3.14 1.66,-4.11 1.1,-0.97 2.55,-1.57 4.35,-1.8 z m -6.75,8.66 c 0.68,0.54 1.48,0.8 2.41,0.8 1.13,0 2.22,-0.26 3.28,-0.78 1.78,-0.87 2.67,-2.28 2.67,-4.25 v -2.58 c -0.39,0.25 -0.9,0.46 -1.51,0.63 -0.61,0.17 -1.22,0.29 -1.81,0.36 l -1.94,0.25 c -1.16,0.15 -2.04,0.4 -2.62,0.73 -0.99,0.56 -1.49,1.45 -1.49,2.67 -0.01,0.91 0.33,1.64 1.01,2.17 z"
   id="path37"
   style="fill:#ffffff;fill-opacity:1" />
	<path
   class="st0"
   d="m 462.51,451.22 h 3.24 v 5.33 h 3.05 v 2.62 h -3.05 v 12.46 c 0,0.67 0.23,1.11 0.68,1.34 0.25,0.13 0.66,0.2 1.25,0.2 0.16,0 0.32,-0.01 0.5,-0.01 0.18,-0.01 0.39,-0.03 0.62,-0.06 v 2.55 c -0.37,0.11 -0.75,0.18 -1.15,0.23 -0.4,0.05 -0.83,0.07 -1.29,0.07 -1.5,0 -2.51,-0.38 -3.05,-1.15 -0.53,-0.76 -0.8,-1.76 -0.8,-2.98 v -12.64 h -2.58 v -2.62 h 2.58 z"
   id="path38"
   style="fill:#ffffff;fill-opacity:1" />
	<path
   class="st0"
   d="m 485.85,458.46 c 1.69,1.64 2.53,4.05 2.53,7.23 0,3.08 -0.74,5.62 -2.23,7.62 -1.49,2.01 -3.79,3.01 -6.92,3.01 -2.61,0 -4.68,-0.89 -6.21,-2.66 -1.53,-1.77 -2.3,-4.16 -2.3,-7.15 0,-3.21 0.81,-5.76 2.42,-7.66 1.62,-1.9 3.79,-2.85 6.51,-2.85 2.44,0 4.51,0.82 6.2,2.46 z m -2,12.68 c 0.78,-1.61 1.17,-3.4 1.17,-5.37 0,-1.78 -0.28,-3.23 -0.85,-4.34 -0.89,-1.76 -2.43,-2.64 -4.62,-2.64 -1.94,0 -3.35,0.75 -4.23,2.24 -0.88,1.5 -1.32,3.3 -1.32,5.41 0,2.03 0.44,3.72 1.32,5.08 0.88,1.35 2.28,2.03 4.2,2.03 2.11,0.01 3.55,-0.8 4.33,-2.41 z"
   id="path39"
   style="fill:#ffffff;fill-opacity:1" />
	<path
   class="st0"
   d="m 492.4,456.55 h 3.05 v 3.3 c 0.25,-0.64 0.86,-1.42 1.84,-2.34 0.97,-0.92 2.1,-1.38 3.37,-1.38 0.06,0 0.16,0.01 0.3,0.02 0.14,0.01 0.39,0.04 0.73,0.07 v 3.39 c -0.19,-0.04 -0.36,-0.06 -0.53,-0.07 -0.16,-0.01 -0.34,-0.02 -0.53,-0.02 -1.62,0 -2.86,0.52 -3.72,1.56 -0.87,1.04 -1.3,2.24 -1.3,3.59 v 10.98 h -3.21 z"
   id="path40"
   style="fill:#ffffff;fill-opacity:1" />
	<path
   class="st0"
   d="m 516.4,456.55 h 3.55 c -0.45,1.22 -1.46,4.02 -3.01,8.38 -1.17,3.28 -2.14,5.96 -2.92,8.02 -1.85,4.87 -3.16,7.84 -3.92,8.91 -0.76,1.07 -2.06,1.6 -3.92,1.6 -0.45,0 -0.8,-0.02 -1.04,-0.05 -0.24,-0.04 -0.54,-0.1 -0.9,-0.2 v -2.92 c 0.56,0.15 0.96,0.25 1.21,0.29 0.25,0.04 0.47,0.05 0.66,0.05 0.59,0 1.03,-0.1 1.31,-0.29 0.28,-0.2 0.51,-0.44 0.7,-0.72 0.06,-0.1 0.27,-0.58 0.64,-1.46 0.37,-0.88 0.64,-1.53 0.8,-1.96 l -7.06,-19.65 h 3.64 l 5.11,15.55 z"
   id="path41"
   style="fill:#ffffff;fill-opacity:1" />
<text
   xml:space="preserve"
   style="font-style:normal;font-variant:normal;font-weight:normal;font-stretch:condensed;font-size:44.8478px;font-family:Arial;-inkscape-font-specification:'Arial, Condensed';font-variant-ligatures:normal;font-variant-caps:normal;font-variant-numeric:normal;font-variant-east-asian:normal;fill:#ffffff;fill-opacity:1;stroke:#feffff;stroke-width:1.25096"
   x="17.107904"
   y="607.20789"
   id="text1-4"
   transform="scale(1.1296551,0.88522594)"><tspan
     sodipodi:role="line"
     id="tspan1-5"
     x="17.107904"
     y="607.20789"
     style="font-style:normal;font-variant:normal;font-weight:normal;font-stretch:condensed;font-size:44.8478px;font-family:Arial;-inkscape-font-specification:'Arial, Condensed';font-variant-ligatures:normal;font-variant-caps:normal;font-variant-numeric:normal;font-variant-east-asian:normal;stroke-width:1.25096">CEDMO</tspan></text></g></g><style
     type="text/css"
     id="style1">
	.st0{fill:#241F39;}
	.st1{fill:#FFD000;}
</style></svg>
